<svg xmlns="http://www.w3.org/2000/svg" version="1.1" xmlns:xlink="http://www.w3.org/1999/xlink" xmlns:svgjs="http://svgjs.dev/svgjs" width="1000" height="219" viewBox="0 0 1000 219"><g transform="matrix(1,0,0,1,-0.6060606060606233,-0.47445242479696503)"><svg viewBox="0 0 396 87" data-background-color="#ffffff" preserveAspectRatio="xMidYMid meet" height="219" width="1000" xmlns="http://www.w3.org/2000/svg" xmlns:xlink="http://www.w3.org/1999/xlink"><g id="tight-bounds" transform="matrix(1,0,0,1,0.2400000000000091,0.18848110026181075)"><svg viewBox="0 0 395.52 86.62303779947635" height="86.62303779947635" width="395.52"><g><svg viewBox="0 0 547.9522841667109 120.00731043609022" height="86.62303779947635" width="395.52"><g><rect width="7.83095738254051" height="87.27014977443606" x="124.1014383482005" y="16.36858033082708" fill="#0063db" opacity="1" stroke-width="0" stroke="transparent" fill-opacity="1" class="rect-r$-0" data-fill-palette-color="primary" rx="1%" id="r$-0" data-palette-color="#0063db"></rect></g><g transform="matrix(1,0,0,1,152.43228416671093,16.5856702556391)"><svg viewBox="0 0 395.52 86.83596992481202" height="86.83596992481202" width="395.52"><g id="textblocktransform"><svg viewBox="0 0 395.52 86.83596992481202" height="86.83596992481202" width="395.52" id="textblock"><g><svg viewBox="0 0 395.52 86.83596992481202" height="86.83596992481202" width="395.52"><g transform="matrix(1,0,0,1,0,0)"><svg width="395.52" viewBox="2.5 -35.75 166.24 36.5" height="86.83596992481202" data-palette-color="#0063db"><g class="wordmark-text-0" data-fill-palette-color="primary" id="text-0"><path d="M2.5 0L2.5-0.75 5.5-1.5 5.5-33.5 2.5-34.25 2.5-35 15.25-35Q24.2-35 28.98-30.4 33.75-25.8 33.75-17.5L33.75-17.5Q33.75-9.2 28.98-4.6 24.2 0 15.25 0L15.25 0 2.5 0ZM13.75-1.25L15.25-1.25Q19.9-1.25 22.45-5.03 25-8.8 25-17.5L25-17.5Q25-26.2 22.45-29.98 19.9-33.75 15.25-33.75L15.25-33.75 13.75-33.75 13.75-1.25ZM54.25 0.75Q49.35 0.75 45.67-1.38 42-3.5 40-7.6 38-11.7 38-17.5L38-17.5Q38-23.3 40-27.4 42-31.5 45.67-33.63 49.35-35.75 54.25-35.75L54.25-35.75Q59.15-35.75 62.82-33.63 66.5-31.5 68.5-27.4 70.5-23.3 70.5-17.5L70.5-17.5Q70.5-11.7 68.5-7.6 66.5-3.5 62.82-1.38 59.15 0.75 54.25 0.75L54.25 0.75ZM54.25-0.25Q56.2-0.25 57.87-1.9 59.55-3.55 60.65-7.4 61.75-11.25 61.75-17.5L61.75-17.5Q61.75-23.75 60.65-27.6 59.55-31.45 57.87-33.1 56.2-34.75 54.25-34.75L54.25-34.75Q52.3-34.75 50.62-33.1 48.95-31.45 47.85-27.6 46.75-23.75 46.75-17.5L46.75-17.5Q46.75-11.25 47.85-7.4 48.95-3.55 50.62-1.9 52.3-0.25 54.25-0.25L54.25-0.25ZM92 0.75Q84 0.75 79.5-4 75-8.75 75-17.5L75-17.5Q75-23.25 76.97-27.38 78.95-31.5 82.52-33.63 86.09-35.75 90.8-35.75L90.8-35.75Q93.65-35.75 96.55-34.1L96.55-34.1Q97.65-33.5 98.75-32.5L98.75-32.5Q99.59-33.8 100.5-34.55L100.5-34.55Q101.4-35.2 101.5-35.25L101.5-35.25 102.75-35.25 102.75-25.75 100.75-25.75Q100.09-28.15 98.8-30.1L98.8-30.1Q97.59-32 95.82-33.25 94.05-34.5 91.75-34.5L91.75-34.5Q88.3-34.5 86.02-30.5 83.75-26.5 83.75-17.5L83.75-17.5Q83.75-8.35 86.22-4.42 88.7-0.5 93-0.5L93-0.5Q95.34-0.5 97.47-1.83 99.59-3.15 100.92-5.35 102.25-7.55 102.25-10L102.25-10 103.5-10Q103.5-7.15 101.97-4.67 100.45-2.2 97.82-0.73 95.2 0.75 92 0.75L92 0.75ZM119.99 0.75Q116.44 0.75 113.34-0.85L113.34-0.85Q111.94-1.55 110.99-2.5L110.99-2.5Q110.29-1.35 109.24-0.45L109.24-0.45Q108.34 0.2 108.24 0.25L108.24 0.25 106.99 0.25 106.99-9.25 108.99-9.25Q109.74-6.8 111.09-4.85L111.09-4.85Q114.14-0.5 118.99-0.5L118.99-0.5Q121.84-0.5 123.54-2.2 125.24-3.9 125.24-6.75L125.24-6.75Q125.24-8.4 124.27-9.7 123.29-11 121.84-12 120.39-13 117.79-14.5L117.79-14.5Q114.49-16.35 112.44-17.85 110.39-19.35 108.94-21.63 107.49-23.9 107.49-27L107.49-27Q107.49-29.45 108.87-31.43 110.24-33.4 112.99-34.58 115.74-35.75 119.74-35.75L119.74-35.75Q122.64-35.75 125.54-34.1L125.54-34.1Q126.64-33.5 127.74-32.5L127.74-32.5Q128.59-33.8 129.49-34.55L129.49-34.55Q130.39-35.2 130.49-35.25L130.49-35.25 131.74-35.25 131.74-25.75 129.74-25.75Q129.09-28.15 127.79-30.1L127.79-30.1Q126.59-32 124.82-33.25 123.04-34.5 120.74-34.5L120.74-34.5Q118.79-34.5 117.39-32.95 115.99-31.4 115.99-29L115.99-29Q115.99-27.15 117.07-25.68 118.14-24.2 119.72-23.1 121.29-22 123.99-20.45L123.99-20.45Q127.14-18.65 129.09-17.25 131.04-15.85 132.39-13.78 133.74-11.7 133.74-9L133.74-9Q133.74-6.3 132.19-4.08 130.64-1.85 127.54-0.55 124.44 0.75 119.99 0.75L119.99 0.75ZM144.74 0L144.74-0.75 147.74-1.5 147.74-13 137.49-33.5 134.99-34.25 134.99-35 141.24-35Q143.84-35 145.42-33.9 146.99-32.8 147.99-30.75L147.99-30.75 155.39-16 162.99-32.75 159.24-34.25 159.24-35 168.74-35 168.74-34.25 164.74-32.75 155.99-13.5 155.99-1.5 158.99-0.75 158.99 0 144.74 0Z" fill="#0063db" data-fill-palette-color="primary"></path></g></svg></g></svg></g></svg></g></svg></g><g><svg viewBox="0 0 103.60154991223058 120.00731043609022" height="120.00731043609022" width="103.60154991223058"><g><svg xmlns="http://www.w3.org/2000/svg" xmlns:xlink="http://www.w3.org/1999/xlink" version="1.1" x="0" y="0" viewBox="9.638 3.247 80.72399999999999 93.507" enable-background="new 0 0 100 100" xml:space="preserve" height="120.00731043609022" width="103.60154991223058" class="icon-icon-0" data-fill-palette-color="accent" id="icon-0"><g fill="#d90000" data-fill-palette-color="accent"><g fill="#d90000" data-fill-palette-color="accent"><polygon points="36.703,11.011 9.638,26.636 9.638,38.757 36.703,23.131 63.767,38.757 63.767,26.636   " fill="#d90000" data-fill-palette-color="accent"></polygon></g><g fill="#d90000" data-fill-palette-color="accent"><polygon points="63.298,89.092 36.233,73.467 36.233,61.348 63.298,76.973 90.362,61.348 90.362,73.467   " fill="#d90000" data-fill-palette-color="accent"></polygon></g><g fill="#d90000" data-fill-palette-color="accent"><polygon points="9.638,42.012 36.703,26.386 47.198,32.446 20.134,48.072 20.134,79.324 9.638,73.264   " fill="#d90000" data-fill-palette-color="accent"></polygon></g><g fill="#d90000" data-fill-palette-color="accent"><polygon points="77.083,18.872 50.018,3.247 39.522,9.307 66.586,24.932 66.586,56.184 77.083,50.124   " fill="#d90000" data-fill-palette-color="accent"></polygon></g><g fill="#d90000" data-fill-palette-color="accent"><polygon points="23.01,81.127 23.011,49.876 33.507,43.816 33.507,75.068 60.571,90.693 50.075,96.754   " fill="#d90000" data-fill-palette-color="accent"></polygon></g><g fill="#d90000" data-fill-palette-color="accent"><polygon points="90.362,58.092 90.362,26.84 79.866,20.78 79.866,52.031 52.802,67.658 63.298,73.719   " fill="#d90000" data-fill-palette-color="accent"></polygon></g></g></svg></g></svg></g></svg></g><defs></defs></svg><rect width="395.52" height="86.62303779947635" fill="none" stroke="none" visibility="hidden"></rect></g></svg></g></svg>